<?xml version="1.0" encoding="UTF-8" standalone="no"?>
<svg
   id="Layer_1"
   viewBox="0 0 120 120"
   fill="#e5b66e"
   version="1.1"
   sodipodi:docname="follow_discord.svg"
   width="120"
   height="120"
   inkscape:version="1.4.2 (ebf0e94, 2025-05-08)"
   xmlns:inkscape="http://www.inkscape.org/namespaces/inkscape"
   xmlns:sodipodi="http://sodipodi.sourceforge.net/DTD/sodipodi-0.dtd"
   xmlns="http://www.w3.org/2000/svg"
   xmlns:svg="http://www.w3.org/2000/svg">
  <defs
     id="defs9" />
  <sodipodi:namedview
     id="namedview7"
     pagecolor="#ffffff"
     bordercolor="#666666"
     borderopacity="1.0"
     inkscape:pageshadow="2"
     inkscape:pageopacity="0.0"
     inkscape:pagecheckerboard="0"
     showgrid="false"
     inkscape:zoom="1.6416667"
     inkscape:cx="-144.67005"
     inkscape:cy="141.01523"
     inkscape:window-width="2560"
     inkscape:window-height="1000"
     inkscape:window-x="1080"
     inkscape:window-y="464"
     inkscape:window-maximized="1"
     inkscape:current-layer="Layer_1"
     inkscape:showpageshadow="2"
     inkscape:deskcolor="#d1d1d1" />
  <path
     d="m 51.607215,56.119183 c -2.968177,0 -5.311475,2.603664 -5.311475,5.780135 0,3.17647 2.395371,5.780134 5.311475,5.780134 2.968178,0 5.311476,-2.603664 5.311476,-5.780134 0.05207,-3.176471 -2.343298,-5.780135 -5.311476,-5.780135 z m 19.00675,0 c -2.968177,0 -5.311475,2.603664 -5.311475,5.780135 0,3.17647 2.395371,5.780134 5.311475,5.780134 2.968178,0 5.311475,-2.603664 5.311475,-5.780134 0,-3.176471 -2.343297,-5.780135 -5.311475,-5.780135 z"
     id="path2"
     style="stroke-width:0.520733;fill:#000000;fill-opacity:1" />
  <path
     d="M 95.921583,12.429695 H 26.143378 c -5.884281,0 -10.675024,4.790742 -10.675024,10.727097 v 70.403084 c 0,5.936355 4.790743,10.727094 10.675024,10.727094 h 59.051108 l -2.759885,-9.633555 6.665381,6.196725 6.300868,5.8322 11.19576,9.89393 V 23.156792 c 0,-5.936355 -4.79075,-10.727097 -10.675027,-10.727097 z M 75.821294,80.437408 c 0,0 -1.874638,-2.239152 -3.436837,-4.217937 6.821601,-1.926711 9.425265,-6.196721 9.425265,-6.196721 -2.135005,1.405979 -4.165863,2.395372 -5.988428,3.072324 -2.603664,1.093539 -5.103182,1.822565 -7.550627,2.239152 -4.999035,0.937319 -9.581485,0.676952 -13.486981,-0.05207 -2.968177,-0.572806 -5.519768,-1.405978 -7.654773,-2.239151 -1.197686,-0.46866 -2.499518,-1.041466 -3.80135,-1.770492 -0.15622,-0.104146 -0.31244,-0.15622 -0.46866,-0.260366 -0.104146,-0.05207 -0.15622,-0.104147 -0.208293,-0.15622 -0.937319,-0.520733 -1.458052,-0.885246 -1.458052,-0.885246 0,0 2.499518,4.165863 9.112825,6.144648 -1.562198,1.978785 -3.48891,4.322083 -3.48891,4.322083 -11.508196,-0.364513 -15.882353,-7.91514 -15.882353,-7.91514 0,-16.767598 7.498554,-30.358726 7.498554,-30.358726 7.498553,-5.623915 14.632593,-5.467695 14.632593,-5.467695 L 53.586,37.320726 c -9.373191,2.707811 -13.695274,6.821601 -13.695274,6.821601 0,0 1.145612,-0.62488 3.072324,-1.510126 5.571841,-2.447444 9.998071,-3.124397 11.820636,-3.280617 0.31244,-0.05207 0.572806,-0.104146 0.885246,-0.104146 3.17647,-0.416587 6.769527,-0.520733 10.518804,-0.104147 4.946962,0.572806 10.258437,2.030858 15.674059,4.999036 0,0 -4.113789,-3.905497 -12.966248,-6.613308 l 0.729026,-0.833172 c 0,0 7.13404,-0.15622 14.632593,5.467695 0,0 7.498554,13.591128 7.498554,30.358726 0,0 -4.42623,7.550627 -15.934426,7.91514 z"
     id="path4"
     style="stroke-width:0.520733;fill:#000000;fill-opacity:1" />
</svg>
