<?xml version="1.0" encoding="UTF-8" standalone="no"?>
<svg
   id="Layer_1"
   viewBox="0 0 120 120"
   fill="#e5b66e"
   version="1.1"
   sodipodi:docname="follow_discord.svg"
   width="120"
   height="120"
   inkscape:version="1.1.2 (0a00cf5339, 2022-02-04)"
   xmlns:inkscape="http://www.inkscape.org/namespaces/inkscape"
   xmlns:sodipodi="http://sodipodi.sourceforge.net/DTD/sodipodi-0.dtd"
   xmlns="http://www.w3.org/2000/svg"
   xmlns:svg="http://www.w3.org/2000/svg">
  <defs
     id="defs9" />
  <sodipodi:namedview
     id="namedview7"
     pagecolor="#ffffff"
     bordercolor="#666666"
     borderopacity="1.0"
     inkscape:pageshadow="2"
     inkscape:pageopacity="0.0"
     inkscape:pagecheckerboard="0"
     showgrid="false"
     inkscape:zoom="1.6416667"
     inkscape:cx="-144.67005"
     inkscape:cy="141.01523"
     inkscape:window-width="2560"
     inkscape:window-height="963"
     inkscape:window-x="1080"
     inkscape:window-y="471"
     inkscape:window-maximized="1"
     inkscape:current-layer="Layer_1" />
  <g
     id="g828"
     transform="matrix(0.52073287,0,0,0.52073287,-2.7572962,2.0150375)">
    <path
       d="m 104.4,103.9 c -5.7,0 -10.2,5 -10.2,11.1 0,6.1 4.6,11.1 10.2,11.1 5.7,0 10.2,-5 10.2,-11.1 0.1,-6.1 -4.5,-11.1 -10.2,-11.1 z m 36.5,0 c -5.7,0 -10.2,5 -10.2,11.1 0,6.1 4.6,11.1 10.2,11.1 5.7,0 10.2,-5 10.2,-11.1 0,-6.1 -4.5,-11.1 -10.2,-11.1 z"
       id="path2" />
    <path
       d="M 189.5,20 H 55.5 C 44.2,20 35,29.2 35,40.6 v 135.2 c 0,11.4 9.2,20.6 20.5,20.6 h 113.4 l -5.3,-18.5 12.8,11.9 12.1,11.2 21.5,19 V 40.6 C 210,29.2 200.8,20 189.5,20 Z m -38.6,130.6 c 0,0 -3.6,-4.3 -6.6,-8.1 13.1,-3.7 18.1,-11.9 18.1,-11.9 -4.1,2.7 -8,4.6 -11.5,5.9 -5,2.1 -9.8,3.5 -14.5,4.3 -9.6,1.8 -18.4,1.3 -25.9,-0.1 -5.7,-1.1 -10.6,-2.7 -14.7,-4.3 -2.3,-0.9 -4.8,-2 -7.3,-3.4 -0.3,-0.2 -0.6,-0.3 -0.9,-0.5 -0.2,-0.1 -0.3,-0.2 -0.4,-0.3 -1.8,-1 -2.8,-1.7 -2.8,-1.7 0,0 4.8,8 17.5,11.8 -3,3.8 -6.7,8.3 -6.7,8.3 -22.1,-0.7 -30.5,-15.2 -30.5,-15.2 0,-32.2 14.4,-58.3 14.4,-58.3 14.4,-10.8 28.1,-10.5 28.1,-10.5 l 1,1.2 c -18,5.2 -26.3,13.1 -26.3,13.1 0,0 2.2,-1.2 5.9,-2.9 10.7,-4.7 19.2,-6 22.7,-6.3 0.6,-0.1 1.1,-0.2 1.7,-0.2 6.1,-0.8 13,-1 20.2,-0.2 9.5,1.1 19.7,3.9 30.1,9.6 0,0 -7.9,-7.5 -24.9,-12.7 l 1.4,-1.6 c 0,0 13.7,-0.3 28.1,10.5 0,0 14.4,26.1 14.4,58.3 0,0 -8.5,14.5 -30.6,15.2 z"
       id="path4" />
  </g>
</svg>
