<?xml version="1.0" encoding="UTF-8" standalone="no"?>
<!-- Created with Inkscape (http://www.inkscape.org/) -->

<svg
   width="460"
   height="200"
   viewBox="0 0 121.70833 52.916668"
   version="1.1"
   id="svg5"
   inkscape:version="1.1.2 (0a00cf5339, 2022-02-04)"
   sodipodi:docname="wordmark.svg"
   xmlns:inkscape="http://www.inkscape.org/namespaces/inkscape"
   xmlns:sodipodi="http://sodipodi.sourceforge.net/DTD/sodipodi-0.dtd"
   xmlns="http://www.w3.org/2000/svg"
   xmlns:svg="http://www.w3.org/2000/svg">
  <sodipodi:namedview
     id="namedview7"
     pagecolor="#112d3b"
     bordercolor="#666666"
     borderopacity="1.0"
     inkscape:pageshadow="2"
     inkscape:pageopacity="0"
     inkscape:pagecheckerboard="0"
     inkscape:document-units="px"
     showgrid="false"
     inkscape:zoom="1.4039843"
     inkscape:cx="199.78856"
     inkscape:cy="181.26983"
     inkscape:window-width="2560"
     inkscape:window-height="963"
     inkscape:window-x="1080"
     inkscape:window-y="510"
     inkscape:window-maximized="1"
     inkscape:current-layer="layer1"
     units="px"
     width="793.70081px" />
  <defs
     id="defs2" />
  <g
     inkscape:label="Layer 1"
     inkscape:groupmode="layer"
     id="layer1">
    <path
       id="path4866"
       style="fill:#ffffff;fill-opacity:1;stroke-width:2.64583;paint-order:stroke markers fill;stop-color:#000000"
       d="m 22.591295,10.15077 c -0.109196,0.0086 -0.417531,0.199903 -0.659734,0.417413 -0.395794,0.355444 -0.968424,1.162174 -1.259132,1.774065 -0.300225,0.631918 -0.510885,0.954741 -1.023462,1.566959 -0.384872,0.459689 -0.401431,0.505708 -0.462479,1.295088 -0.01975,0.255409 -0.07426,0.555311 -0.12116,0.666629 -0.219836,0.521846 -1.071271,1.313803 -1.412554,1.313803 -0.07927,0 -0.161814,0.02875 -0.183464,0.06378 -0.05725,0.09264 0.256589,0.637974 0.561968,0.976424 0.256838,0.284653 0.274245,0.292505 0.675986,0.308566 l 0.412241,0.0165 0.04088,-0.349198 c 0.02245,-0.192094 0.06176,-0.40039 0.08742,-0.462724 0.09499,-0.230741 1.140142,-0.830227 1.386204,-0.795176 0.109434,0.01558 0.144993,0.07492 0.173615,0.289355 0.03628,0.271845 -0.01307,0.843921 -0.101953,1.184516 l -0.04802,0.184204 0.265716,-0.03571 c 0.358154,-0.04804 0.421449,-0.113834 0.583147,-0.607527 0.07635,-0.233108 0.20657,-0.587277 0.289356,-0.78705 0.08754,-0.211246 0.153199,-0.503392 0.156868,-0.698396 0.009,-0.472323 0.06962,-0.649416 0.230747,-0.672785 0.327766,-0.04754 0.505546,0.805205 0.666136,3.19499 0.05844,0.869677 0.07874,3.041694 0.0729,7.779142 -0.0083,6.747251 -0.05846,8.585203 -0.253156,9.279118 -0.05683,0.202577 -0.08764,0.409295 -0.06846,0.459277 0.05536,0.144277 2.436408,0.646123 3.357032,0.707509 0.243,0.0162 0.536938,0.08132 0.671061,0.148741 0.828205,0.41634 6.907944,1.964897 13.913013,2.919671 0.09156,0.36239 0.298137,0.670213 0.678449,1.017798 0.565473,0.516812 1.161319,0.635169 1.958023,0.389094 0.520418,-0.160741 0.875154,-0.427395 1.268245,-0.953524 0.168478,-0.225497 0.818415,-0.166408 0.894419,-0.20883 0.199857,-0.111544 1.997042,0.0466 3.685298,0.189621 0.330381,0.02799 0.576095,0.03695 0.765626,0.03472 0.09341,0.397335 0.41156,0.928463 0.708493,1.225396 0.696543,0.696541 1.720941,0.854255 2.449313,0.377271 0.130222,-0.08528 0.276622,-0.154896 0.325311,-0.154896 0.14981,0 0.591923,-0.151164 0.825959,-0.6159 0.122288,-0.24283 0.259423,-0.454794 0.304871,-0.471098 0.04545,-0.0163 0.297066,-0.0075 0.559013,0.0197 0.261947,0.02718 0.904914,0.05247 1.428807,0.0559 1.301487,0.0086 2.532345,-0.0057 2.747783,0.09752 0.115721,0.05546 0.238278,-0.04234 0.347473,0.185434 0.268757,0.560586 0.955847,1.098923 1.542833,1.24091 v -2.52e-4 c 0.28109,0.06799 0.412779,0.06649 0.829648,-0.0098 0.729081,-0.133512 1.335555,-0.611317 1.657581,-1.305923 0.0834,-0.179893 0.187963,-0.357081 0.232476,-0.394017 0.07801,-0.06474 3.019777,-0.198608 4.376551,-0.199226 0.604087,-2.52e-4 0.619348,0.0032 0.619348,0.146033 0,0.253844 0.315947,0.793044 0.629691,1.074683 0.499957,0.4488 0.841267,0.58881 1.43545,0.58881 0.447098,0 0.560898,-0.02559 0.93161,-0.20809 0.553765,-0.272618 1.020148,-0.773959 1.174175,-1.262581 0.133269,-0.422779 0.238923,-0.50232 0.782124,-0.587578 0.420836,-0.06605 4.388666,-0.346013 4.404612,-0.310782 0.310497,0.685039 0.821089,1.282928 1.330813,1.558587 0.282317,0.152679 0.979403,0.136063 1.548977,-0.03694 0.735902,-0.223521 1.282181,-0.829389 1.480272,-1.64133 0.03832,-0.157246 0.109756,-0.279544 0.174592,-0.299206 0.189079,-0.05734 0.864181,-0.15282 3.189576,-0.451151 5.282836,-0.67775 9.497233,-1.742395 14.559447,-2.893568 2.01902,-0.45913 1.77816,-1.916934 1.67186,-2.510139 l -0.0626,-0.349937 -0.1264,-0.2935 c -0.2226,-0.587147 -0.32659,-0.957007 -0.42357,-1.507611 -0.12982,-0.736862 -0.26355,-1.293851 -0.53586,-2.229894 -0.12467,-0.428523 -0.26911,-1.004241 -0.32088,-1.279572 -0.0518,-0.275329 -0.34409,-1.490862 -0.649627,-2.700992 -0.622727,-2.466276 -0.800457,-3.238397 -0.873487,-3.794144 -0.0923,-0.702472 -0.707384,-3.333157 -1.015573,-4.343553 -0.07645,-0.250638 -0.145978,-0.394121 -0.211793,-0.436869 -0.248191,-0.161185 -1.704456,-0.21095 -1.852124,-0.06329 -0.132828,0.132833 -0.498845,2.002917 -0.622552,3.180463 -0.03693,0.351698 -0.08605,0.662635 -0.109092,0.691008 -0.122756,0.151026 -0.431988,1.495105 -1.112113,4.833859 -0.571633,2.806212 -0.658038,3.1918 -1.16308,5.186259 -0.539649,2.131085 -0.625666,2.562664 -0.55951,2.808361 0.07811,0.290108 0.520859,0.597976 1.063352,0.739276 0.258717,0.06738 0.986346,0.08342 1.248544,0.02758 l 0.134705,-0.02857 0.142589,-1.144869 c 0.348954,-2.801969 0.364872,-2.87663 0.651363,-3.051667 0.0819,-0.05007 0.50262,-0.204006 0.934794,-0.342057 0.432182,-0.138051 0.957612,-0.332264 1.167522,-0.431449 0.281763,-0.133126 0.458516,-0.186398 0.675498,-0.203412 l 0.294034,-0.02291 0.167954,0.861912 c 0.202262,1.037078 0.270052,1.52101 0.388842,2.778072 0.0498,0.526677 0.1122,1.043545 0.13864,1.148562 0.0258,0.102233 -0.007,0.196024 0.0401,0.266646 -0.29527,0.682743 -8.885735,3.672505 -13.93616,4.290415 -2.890399,0.353636 -3.088139,0.647327 -3.330919,0.168198 -0.301172,-0.594315 -0.802142,-0.818386 -1.490872,-0.972733 -0.796002,-0.178385 -1.939296,0.418408 -2.339236,1.220963 -0.09021,0.181101 -0.197287,0.24973 -0.273591,0.309797 -0.368482,0.290049 -0.457645,0.14053 -0.788526,0.201441 -0.11662,0.02147 -0.810796,0.110484 -1.864199,0.181002 -1.053409,0.07052 -1.986834,0.01551 -1.986834,0.01551 -0.256188,0.0528 -0.535855,0.04249 -0.718589,-0.343782 -0.196869,-0.416135 -0.500119,-0.497088 -0.887771,-0.703814 -0.394934,-0.210611 -1.326275,-0.206806 -1.820614,0.0074 -0.4511,0.19546 -1.036959,0.318113 -1.216279,0.797393 -0.07324,0.195746 -0.132985,0.378967 -0.132985,0.407315 0,0.08508 -1.127977,0.13359 -3.116681,0.133967 l -1.878233,2.52e-4 -0.07437,-0.321617 c -0.493342,-0.522068 -0.375956,-0.31433 -0.793143,-0.645957 -0.746637,-0.593521 -1.254508,-0.635408 -2.18089,-0.179524 -0.638058,0.313994 -1.034175,0.725253 -1.238447,1.285482 l -0.140864,0.385646 -2.130899,-0.03817 c -1.208487,-0.02165 -2.276863,-0.06973 -2.467783,-0.111064 l -0.336614,-0.07291 -0.240351,-0.517887 c -0.333831,-0.719358 -0.831669,-1.167828 -1.4128,-1.272925 -0.393431,-0.07115 -1.30541,0.06481 -1.602421,0.238874 -0.360643,0.211352 -0.767727,0.585417 -0.893927,0.900824 -0.125795,0.31439 0.08061,0.282894 -2.471968,0.109832 -2.770999,-0.187872 -2.960799,0.03079 -2.960799,-0.445734 0,-0.308738 -0.20392,-0.661079 -0.613928,-1.061384 -0.542446,-0.529609 -0.789626,-0.627393 -1.501209,-0.593982 -0.440312,0.02068 -0.650579,0.06186 -0.855509,0.168196 -0.298596,0.154932 -0.952615,0.790475 -1.210375,1.176144 l -0.164009,0.245521 -0.470113,-0.0426 c -0.732347,-0.06637 -1.730197,-0.261243 -3.122073,-0.610235 -1.530546,-0.383762 -2.444044,-0.694735 -4.509287,-1.534207 -0.855691,-0.347817 -1.71298,-0.661976 -1.905076,-0.69815 -0.192092,-0.03618 -0.392111,-0.103004 -0.444501,-0.148495 -0.05239,-0.04549 -0.672242,-0.384313 -1.377585,-0.753067 -1.476683,-0.772012 -2.022269,-1.095548 -2.438231,-1.446291 l -0.296498,-0.250201 -0.04236,-1.441121 c -0.06037,-2.053094 -0.158081,-3.994138 -0.221142,-4.39305 -0.03339,-0.211175 -0.02217,-0.854413 0.02955,-1.679748 0.04609,-0.735621 0.128526,-2.437667 0.182971,-3.782326 0.141544,-3.495813 0.218351,-4.908217 0.330236,-6.064424 0.0584,-0.603496 0.08098,-1.194437 0.05566,-1.455403 -0.113219,-1.16659 -0.6424,-1.721211 -1.848436,-1.936351 -0.281143,-0.05016 -1.908089,-0.186622 -2.327906,-0.195285 -0.02619,-5.25e-4 -0.04753,-0.269309 -0.04753,-0.597429 0,-0.731904 0.156629,-1.28991 0.481933,-1.715949 0.125918,-0.164908 0.214655,-0.314313 0.197009,-0.33196 -0.0066,-0.0067 -0.01838,-0.0091 -0.03399,-0.0078 z m 52.053936,6.766763 c -0.218675,0.06552 -0.276521,0.160502 -0.40289,0.660966 -0.13655,0.540813 -0.39283,1.892758 -0.499666,2.636224 -0.05243,0.364919 -0.145017,0.84984 -0.205873,1.077638 -0.188424,0.705387 -0.545745,2.269343 -0.669089,2.928784 -0.522458,2.793173 -0.886701,4.52492 -1.123689,5.343373 -0.08581,0.296359 -0.256564,0.9772 -0.379491,1.513029 -0.122918,0.53583 -0.304979,1.284695 -0.404603,1.663985 -0.09963,0.379292 -0.181247,0.74479 -0.181247,0.812416 0,0.16056 0.325143,0.510874 0.626241,0.674755 0.299419,0.162964 0.74116,0.250934 1.25987,0.251187 0.491732,2.52e-4 0.616478,-0.02414 0.648409,-0.126825 0.04392,-0.141211 0.110592,-0.709106 0.203415,-1.735156 0.09791,-1.082399 0.239291,-1.980348 0.34476,-2.188522 0.08485,-0.167468 0.275288,-0.256081 1.226381,-0.570094 0.448849,-0.148192 0.983875,-0.350817 1.188699,-0.450412 0.566298,-0.275361 0.869138,-0.235141 0.967069,0.128549 0.06964,0.258669 0.203472,1.171215 0.402146,2.743594 0.230004,1.820396 0.312319,2.094709 0.660719,2.199112 h 2.49e-4 c 0.199153,0.05968 0.221701,0.0562 0.725977,-0.112541 0.659598,-0.220716 1.415694,-0.589831 1.383008,-0.675002 C 80.259898,33.286785 79.987442,32.285747 79.80514,31.450386 79.681183,30.882365 79.457783,29.963075 79.308684,29.407404 78.781574,27.442966 77.829483,23.498978 77.607013,22.357686 77.32267,20.89901 77.210158,20.36661 76.923145,19.126002 76.749061,18.373515 76.563287,17.60803 76.510414,17.424831 L 76.414124,17.091641 76.1223,16.926645 75.830483,16.76165 Z M 20.63475,14.275891 c 0.110922,0.01581 0.140353,0.06889 0.155884,0.281475 0.01296,0.177535 -0.01416,0.295393 -0.08398,0.365206 -0.19276,0.19276 -0.411502,0.100344 -0.411502,-0.173859 0,-0.269424 0.164096,-0.497831 0.339594,-0.472822 z m 32.362157,2.356226 -0.830886,0.285171 c -0.45692,0.156874 -0.834285,0.288817 -0.838764,0.293296 -0.0044,0.0044 0.02638,0.55239 0.06871,1.217516 0.140134,2.201752 0.217161,6.046973 0.203165,10.155315 -0.01904,5.588963 -0.0197,5.517486 0.04581,5.617461 0.08337,0.127235 0.225243,0.172823 0.654069,0.210061 0.21036,0.01826 0.46456,0.06024 0.564923,0.09333 0.214595,0.07076 0.328643,0.05962 0.490551,-0.04753 0.297598,-0.196942 1.330114,-1.712389 2.184337,-3.20632 0.480698,-0.840683 0.750852,-1.283036 1.269968,-2.079676 0.256041,-0.392919 0.50419,-0.785925 0.551625,-0.873241 0.04744,-0.08732 0.256615,-0.401523 0.464699,-0.698396 1.080098,-1.540984 1.028593,-1.429388 1.030356,-2.238513 0.0014,-0.669405 -0.03571,-0.902318 -0.162288,-1.019768 -0.109946,-0.101999 -0.586474,-0.710389 -1.439643,-1.837846 -0.793197,-1.048207 -1.142742,-1.489089 -1.383988,-1.746237 -0.161213,-0.171842 -0.267129,-0.338033 -0.267193,-0.419138 -4.7e-5,-0.07773 -0.180571,-0.422234 -0.356833,-0.680665 -0.29156,-0.427476 -1.625802,-2.239792 -1.947925,-2.645829 z m -10.954925,0.147265 -0.181249,0.02092 c -0.157595,0.01816 -0.932741,0.184291 -1.689351,0.362005 l -0.238134,0.0559 0.0096,0.491292 c 0.08587,4.4692 0.168054,9.212937 0.171151,9.873592 0.003,0.635612 -0.01669,1.121146 -0.08052,1.984618 -0.07785,1.053071 -0.119803,1.671215 -0.164255,2.413113 -0.03337,0.556871 -0.110375,2.376124 -0.100967,2.385531 0.02625,0.02625 0.61844,0.07461 0.915845,0.07486 0.599484,5.25e-4 1.384006,-0.103219 1.591092,-0.210307 0.170156,-0.08799 0.188787,-0.193943 0.185927,-1.056213 -0.0014,-0.427727 -0.01697,-1.185741 -0.03448,-1.684427 -0.05341,-1.521018 -0.09464,-3.368885 -0.128055,-5.732711 -0.05409,-3.826149 -0.05336,-3.948868 0.02733,-4.651626 0.0391,-0.340531 0.08219,-0.646968 0.0958,-0.680912 0.02072,-0.05168 0.125232,0.05943 0.642002,0.682635 1.755254,2.116739 2.079604,2.584481 2.77167,3.995341 l 0.321123,0.654562 v 4.284204 4.284451 l 0.222374,0.05886 c 0.122242,0.03242 0.32226,0.07092 0.444502,0.08545 0.512612,0.06096 1.275454,-0.06009 1.498253,-0.237641 l 0.08915,-0.07117 0.01009,-0.852309 c 0.0054,-0.468816 -0.01263,-1.424001 -0.04015,-2.122525 -0.174332,-4.42655 -0.185341,-8.343559 -0.03324,-11.779653 0.02551,-0.576282 0.05584,-1.31236 0.06748,-1.635913 l 0.02118,-0.588317 -0.291574,-0.0559 c -0.434702,-0.08334 -1.044321,-0.118315 -1.481752,-0.08496 -0.414799,0.03162 -0.569495,0.07091 -0.601124,0.152683 -0.03828,0.09895 -0.08463,1.225201 -0.0655,1.593309 0.02717,0.522622 0.03288,3.106946 0.0068,3.132933 -0.06053,0.06053 -0.600492,-0.635728 -1.592323,-2.053325 -1.132091,-1.618065 -1.80457,-2.510498 -2.186306,-2.901448 z m 20.629045,0.0015 -0.138398,0.01576 c -0.07625,0.0086 -0.538129,0.105908 -1.02617,0.216218 l -0.887281,0.200457 2.55e-4,0.414456 c 9.9e-5,0.227896 0.03578,2.428943 0.07953,4.891239 0.103528,5.826874 0.10491,5.479895 -0.02884,7.620058 -0.0622,0.995396 -0.134552,2.231389 -0.160815,2.746549 -0.02629,0.515162 -0.05604,1.059968 -0.06624,1.210619 l -0.01871,0.273843 0.105398,0.01946 c 0.250088,0.04583 1.111596,0.05864 1.521897,0.02266 0.731164,-0.06412 0.898142,-0.128507 0.987501,-0.380227 0.05314,-0.149705 0.04421,-1.649009 -0.02189,-3.654761 -0.08231,-2.495896 -0.111187,-4.007171 -0.111067,-5.810284 2.55e-4,-2.782969 0.0767,-3.990826 0.254885,-4.025138 0.14994,-0.02888 1.366856,1.464965 2.34317,2.876576 0.696635,1.00724 1.050839,1.728666 1.161615,2.36583 0.146396,0.841986 0.173489,1.837417 0.146276,5.370955 -0.01332,1.728846 -0.01948,3.148832 -0.01381,3.155589 0.0056,0.0067 0.143068,0.04599 0.305115,0.08718 0.266397,0.06772 0.346326,0.07368 0.834331,0.06206 0.546687,-0.01302 0.793261,-0.05425 0.954019,-0.159578 0.155792,-0.102079 0.319079,-0.561287 0.268176,-0.754297 -0.105392,-0.39962 -0.250315,-4.676798 -0.275812,-8.137945 -0.01757,-2.388859 -0.01304,-2.63013 0.101459,-5.508614 0.05526,-1.388525 0.07328,-2.683741 0.0379,-2.719215 -0.04952,-0.04969 -0.616605,-0.105016 -1.293112,-0.126332 -0.738461,-0.02328 -0.886722,-0.004 -0.958694,0.125347 -0.02827,0.05086 -0.044,0.642518 -0.06008,2.259692 -0.01198,1.204952 -0.03223,2.245105 -0.04506,2.311407 -0.01431,0.07369 -0.03932,0.116825 -0.06425,0.111063 -0.09512,-0.02196 -1.171716,-1.403211 -1.442599,-1.850898 -0.357167,-0.590298 -1.595437,-2.217658 -2.262641,-2.973593 z m 20.888849,0.132491 -0.317422,0.03003 c -0.174602,0.01647 -0.529714,0.0747 -0.789031,0.129288 -0.542142,0.114125 -0.498025,0.03378 -0.411251,0.749618 0.143642,1.184999 0.177399,12.898068 0.04257,14.773203 -0.08199,1.13991 -0.07562,1.49765 0.02835,1.612518 0.04737,0.05235 0.14849,0.1131 0.22459,0.135198 0.297248,0.0863 1.480152,0.02187 1.703635,-0.09284 0.05281,-0.02715 0.15174,-0.101159 0.21966,-0.164503 l 0.123375,-0.11525 v -0.653823 c -5.5e-5,-0.359654 -0.03943,-1.442068 -0.08744,-2.405232 -0.04792,-0.963166 -0.101086,-2.296685 -0.117956,-2.963507 -0.03121,-1.235829 0.05743,-6.258972 0.111557,-6.319305 0.03398,-0.03795 0.781995,1.36308 0.974703,1.825779 0.208303,0.500155 0.470399,0.692061 1.05399,0.77129 l 0.206124,0.02783 0.194794,-0.308073 c 0.107162,-0.169513 0.401482,-0.704648 0.654068,-1.189195 0.64586,-1.238959 0.746733,-1.389891 0.798874,-1.195352 0.04903,0.183045 0.02807,7.111276 -0.02825,9.350535 -0.07544,2.997405 -0.07497,3.043423 0.03915,3.1977 0.163909,0.22146 0.298346,0.258694 0.937761,0.259312 0.671047,6.21e-4 0.97654,-0.062 1.195351,-0.244782 l 0.151703,-0.126579 -0.0018,-0.555073 c -7.11e-4,-0.305199 -0.02567,-1.130793 -0.05568,-1.834644 -0.132128,-3.110509 -0.213529,-10.57479 -0.145046,-13.313615 0.02087,-0.833987 0.01616,-0.910924 -0.06722,-1.077391 -0.137364,-0.274142 -0.225071,-0.301201 -0.891225,-0.275566 -0.317302,0.01221 -0.582011,0.02858 -0.588068,0.03644 -0.0065,0.0078 -0.471138,0.832711 -1.033316,1.832921 -1.182101,2.10311 -1.259255,2.222753 -1.434964,2.222753 -0.145508,0 -0.282013,-0.204511 -1.304683,-1.953344 -0.645444,-1.103734 -1.019401,-1.699959 -1.250021,-1.992499 z m -50.43107,2.52e-4 c -0.611291,-0.0018 -0.73632,0.01478 -0.803302,0.106384 -0.07753,0.106033 -0.138312,0.400828 -0.536849,2.609628 -0.10713,0.593745 -0.306035,1.550922 -0.442039,2.127205 -0.431903,1.830063 -1.29099,6.160805 -1.429793,7.207569 -0.02316,0.174631 -0.108915,0.417563 -0.190604,0.539805 -0.0817,0.122241 -0.18204,0.393782 -0.223115,0.60334 -0.04107,0.209557 -0.244636,1.080904 -0.452381,1.936596 -0.285391,1.175523 -0.362903,1.589295 -0.316444,1.692307 0.0897,0.198888 0.477185,0.473099 0.85354,0.604324 0.252721,0.08812 0.487745,0.111144 1.023215,0.09974 l 0.695442,-0.01502 0.238873,-1.905076 c 0.131332,-1.047785 0.239905,-1.940715 0.241335,-1.984373 0.0059,-0.184031 0.296866,-0.336331 1.24879,-0.653576 0.554436,-0.184775 1.15875,-0.40263 1.343108,-0.484149 0.184357,-0.08152 0.432349,-0.148249 0.550886,-0.148249 0.187173,0 0.224193,0.02714 0.281969,0.206365 0.112586,0.349267 0.314948,1.602848 0.484396,3.000693 0.237811,1.961784 0.254561,2.000132 0.872503,2.000132 0.455457,0 1.010431,-0.136642 1.551445,-0.38195 0.22031,-0.0999 0.400677,-0.190524 0.400667,-0.201443 -1.1e-5,-0.01091 -0.09692,-0.291243 -0.215233,-0.62304 -0.118309,-0.3318 -0.306972,-1.046292 -0.419382,-1.587645 -0.112411,-0.541356 -0.287901,-1.298515 -0.389832,-1.682703 -0.333391,-1.2566 -1.438429,-5.697357 -1.611778,-6.477159 -0.09317,-0.419115 -0.224741,-1.090691 -0.292313,-1.492342 -0.06757,-0.401651 -0.252905,-1.273245 -0.411994,-1.936844 -0.367352,-1.532303 -0.530932,-2.305482 -0.53217,-2.515803 -0.0015,-0.243613 -0.208769,-0.466657 -0.520597,-0.560243 -0.152578,-0.0458 -0.595404,-0.08332 -0.998343,-0.08447 z m 20.614271,4.255883 c 0.03963,1e-6 0.376296,0.438484 0.987754,1.285976 0.188991,0.261946 0.480399,0.645266 0.64742,0.851817 0.167023,0.206549 0.407632,0.512653 0.534879,0.680173 0.487586,0.641918 1.054737,1.627312 1.054737,1.832921 0,0.07315 -0.08739,0.243244 -0.311766,0.606788 -0.419687,0.680014 -2.351667,3.68753 -2.651002,4.126843 -0.277397,0.407117 -0.322182,0.454068 -0.353877,0.371854 -0.106167,-0.275394 -0.07622,-9.419798 0.03177,-9.70121 0.01164,-0.03034 0.03877,-0.05516 0.06009,-0.05516 z m 43.274474,0.520842 c 0.04543,-0.01111 0.104623,0.102572 0.180012,0.34181 0.160161,0.508131 0.310331,1.216007 0.568863,2.68277 0.126238,0.716199 0.289843,1.589539 0.363727,1.940782 0.07387,0.351246 0.128352,0.723074 0.12068,0.826208 l -0.01403,0.18765 -1.032817,0.309551 c -0.568023,0.170311 -1.138835,0.321691 -1.268495,0.336392 -0.282169,0.032 -0.277894,0.04947 -0.145535,-0.593736 0.04958,-0.241028 0.242833,-1.278845 0.429484,-2.306234 0.186632,-1.02739 0.417077,-2.170968 0.511967,-2.541415 0.09489,-0.370449 0.18691,-0.789847 0.204398,-0.931852 0.01967,-0.159249 0.04644,-0.243289 0.08171,-0.251926 z m -63.511226,0.04802 c 0.0011,6.6e-5 0.0022,6.19e-4 0.0032,0.0017 0.112114,0.118843 0.857706,3.680593 1.056706,5.048105 0.07939,0.54558 0.08952,0.763775 0.03792,0.815371 -0.03874,0.03874 -0.576051,0.225018 -1.194121,0.413965 -0.618071,0.188947 -1.148271,0.343533 -1.178112,0.343533 -0.121118,0 -0.120376,-0.146448 0.0034,-0.772766 0.07134,-0.360829 0.256109,-1.327617 0.410762,-2.148382 0.329979,-1.751223 0.784928,-3.705694 0.86019,-3.701551 z m 42.01707,0.04703 c 0.03032,-0.0095 0.08273,0.08881 0.125101,0.234441 0.135494,0.466094 1.012623,4.976874 1.012623,5.207683 0,0.370097 -0.158937,0.51003 -0.763406,0.672293 -0.160531,0.04309 -0.574771,0.158114 -0.920523,0.255619 -0.345753,0.09751 -0.664194,0.188247 -0.70751,0.201441 -0.196564,0.05983 -0.19047,0.0192 0.50508,-3.484594 0.467211,-2.353549 0.636407,-3.051585 0.748635,-3.086883 z M 42.641381,38.029005 c 1.149544,0.01806 1.989482,1.255045 1.468947,2.447589 -0.172408,0.394985 -0.58328,0.783758 -0.941949,0.891219 -1.112199,0.333223 -2.170051,-0.481669 -2.170051,-1.671622 0,-0.804888 0.412453,-1.385452 1.134523,-1.596756 0.173788,-0.05086 0.344308,-0.07301 0.50853,-0.07043 z m 37.528954,0.11131 c 1.269725,0 2.075588,1.11976 1.682222,2.337757 -0.132184,0.40926 -0.395923,0.727911 -0.738044,0.891957 -0.359692,0.172462 -0.834219,0.216897 -1.207179,0.112789 -1.314027,-0.366803 -1.662242,-2.042663 -0.62009,-2.984194 0.319491,-0.288637 0.490999,-0.358309 0.883091,-0.358309 z m -9.350773,0.698396 c 0.24527,0.0092 0.497837,0.06082 0.690271,0.151943 0.642054,0.304047 0.981345,0.855395 0.981345,1.594541 0,0.689712 -0.30527,1.228763 -0.839992,1.482983 -0.536917,0.255267 -1.174671,0.209652 -1.653154,-0.118205 -0.398802,-0.273267 -0.797109,-0.987964 -0.803301,-1.441612 -0.0072,-0.531346 0.49679,-1.340004 0.977654,-1.56819 0.163797,-0.07773 0.401905,-0.110685 0.647177,-0.10146 z m -18.773224,0.0012 c 0.912669,7.79e-4 1.666942,0.790353 1.666942,1.745252 0,0.730005 -0.466865,1.395121 -1.114332,1.587399 -0.380595,0.113025 -0.54653,0.114101 -0.945643,0.0066 -0.764717,-0.205883 -1.194611,-0.801466 -1.194611,-1.655613 0,-0.540551 0.155377,-0.954246 0.479962,-1.278833 0.301922,-0.301922 0.584765,-0.405233 1.107682,-0.404853 z m 9.370727,0.09358 c 0.892574,0.02043 1.805885,0.769032 1.72974,1.896211 -0.04357,0.644718 -0.366843,1.137633 -0.906978,1.383002 -0.165122,0.075 -0.401274,0.115662 -0.668111,0.114758 -1.065829,-0.0035 -1.681832,-0.642297 -1.682456,-1.744022 -2.48e-4,-0.422363 0.02735,-0.56352 0.161792,-0.824728 0.302345,-0.58751 0.83047,-0.837478 1.366013,-0.825221 z m -18.71732,0.05935 c -0.312703,0.0042 -0.640975,0.191439 -0.810937,0.520103 -0.206135,0.398625 -0.101908,0.667238 0.336145,0.8661 0.202413,0.09189 0.395748,0.167983 0.429726,0.168935 0.034,0.001 0.220578,-0.149018 0.414705,-0.333683 0.417762,-0.397414 0.459019,-0.701362 0.138644,-1.021738 -0.138733,-0.138734 -0.32066,-0.202182 -0.508283,-0.199717 z m 37.680656,0.221634 c -0.37163,0 -0.824726,0.480078 -0.824726,0.873981 0,0.194725 0.0518,0.331723 0.14776,0.390571 0.162386,0.09955 0.885528,0.04253 1.131567,-0.08915 0.561098,-0.300296 0.22268,-1.175405 -0.454601,-1.175404 z m -28.188768,0.472084 c -0.254472,5.25e-4 -0.750655,0.307196 -0.876197,0.541776 -0.136334,0.254739 -0.02941,0.613617 0.247738,0.831624 0.576749,0.453671 1.464344,-0.05702 1.329072,-0.764641 -0.0553,-0.289249 -0.423544,-0.609281 -0.700613,-0.608759 z m -11.957454,10e-4 c 0.103813,0.03379 0.159897,0.05801 0.196024,0.114265 -0.133599,-0.07454 -0.228203,-0.124696 -0.196024,-0.11422 z m 21.382362,0.15642 c -0.299886,0 -0.941919,0.404659 -1.094636,0.690024 -0.126319,0.236029 -0.117513,0.259674 0.208587,0.558519 0.374891,0.343563 0.447346,0.36006 0.903286,0.207353 0.423627,-0.141891 0.724993,-0.432268 0.724993,-0.698643 -6e-6,-0.277842 -0.469903,-0.757253 -0.74223,-0.757253 z m 9.376141,0.09752 c -0.134134,0.0011 -0.28187,0.05461 -0.454842,0.160071 -0.558873,0.340812 -0.558037,0.902911 0.0014,1.146345 h 2.56e-4 c 0.384271,0.166981 0.598744,0.154843 0.858213,-0.04925 0.306419,-0.241034 0.313893,-0.760053 0.0153,-1.058676 -0.134027,-0.134023 -0.268601,-0.199818 -0.420616,-0.198487 z"
       sodipodi:nodetypes="csssscssscccscscccsscsscsssccssssscsssssccsscccsscsssssscsscsssccccsccssssscssssccscssccccccscscssscssssscccssccscccssssssssccsssssscccscsscccssccccsscssssssssssssssccsssssscccccsccsssccsssssssssssccsscsccccccccssscscsssscccccccccccsccsssscscccccccssccccssccsssscsssscccscsccsscccsscsscccccccscccsccccccccscsccssccssssscssssccccssssssssssssssccsssssssssssssscsscccsssscssccsssscsccccssscscsssssssssssscsssscsccsscssccscscscscsscsscsscssscssscccccssssssccccsscc" />
  </g>
</svg>
